<svg xmlns="http://www.w3.org/2000/svg" width="256" height="256" viewBox="0 0 100 100"><path d="M49.34 48.75L49.34 51.29Q49.34 59.69 46.37 66.02Q43.40 72.34 37.87 75.78Q32.34 79.22 25.20 79.22L25.20 79.22Q18.13 79.22 12.58 75.82Q7.03 72.42 3.98 66.11Q0.94 59.80 0.90 51.60L0.90 51.60L0.90 48.79Q0.90 40.39 3.93 34.00Q6.95 27.62 12.48 24.20Q18.01 20.78 25.12 20.78Q32.23 20.78 37.75 24.20Q43.28 27.62 46.31 34.00Q49.34 40.39 49.34 48.75L49.34 48.75ZM37.46 51.48L37.46 48.71Q37.46 39.77 34.26 35.12Q31.05 30.47 25.12 30.47L25.12 30.47Q19.22 30.47 16.02 35.06Q12.81 39.65 12.77 48.52L12.77 48.52L12.77 51.29Q12.77 60 15.98 64.80Q19.18 69.61 25.20 69.61L25.20 69.61Q31.09 69.61 34.26 64.98Q37.42 60.35 37.46 51.48L37.46 51.48ZM87.34 63.52L87.34 63.52Q87.34 60.20 85 58.42Q82.66 56.64 76.56 54.67Q70.47 52.70 66.91 50.78L66.91 50.78Q57.23 45.55 57.23 36.68L57.23 36.68Q57.23 32.07 59.82 28.46Q62.42 24.84 67.29 22.81Q72.15 20.78 78.20 20.78L78.20 20.78Q84.30 20.78 89.06 22.99Q93.83 25.20 96.46 29.22Q99.10 33.24 99.10 38.36L99.10 38.36L87.38 38.36Q87.38 34.45 84.92 32.29Q82.46 30.12 78.01 30.12L78.01 30.12Q73.71 30.12 71.33 31.93Q68.95 33.75 68.95 36.72L68.95 36.72Q68.95 39.49 71.74 41.37Q74.53 43.24 79.96 44.88L79.96 44.88Q89.96 47.89 94.53 52.34Q99.10 56.80 99.10 63.44L99.10 63.44Q99.10 70.82 93.52 75.02Q87.93 79.22 78.48 79.22L78.48 79.22Q71.91 79.22 66.52 76.82Q61.13 74.41 58.30 70.23Q55.47 66.05 55.47 60.55L55.47 60.55L67.23 60.55Q67.23 69.96 78.48 69.96L78.48 69.96Q82.66 69.96 85 68.26Q87.34 66.56 87.34 63.52Z" fill="#fff"></path></svg>